<svg version="1.1" id="Layer_1" width="2%" height="2%" xmlns="http://www.w3.org/2000/svg"  
	 viewBox="0 0 512 512" xml:space="preserve">
<rect x="57.977" y="199.912" style="fill:#FCD577;" width="396.028" height="98.728"/>
<rect x="39.475" y="277.266" style="fill:#FF6F52;" width="433.042" height="210.381"/>
<rect x="57.977" y="215.411" style="fill:#EAC36E;" width="396.028" height="27.993"/>
<path style="fill:#FF6F52;" d="M512,192.436c0,0-33.31,28.846-57.99,28.846H57.977C33.31,221.281,0,192.436,0,192.436
	c8.061,0,15.998-0.905,23.613-2.418c19.743-3.906,36.771-14.485,49.023-29.106c2.257-2.691,4.352-5.506,6.275-8.458
	c8.52-13.071,13.605-28.523,14.15-44.943h325.865c0.545,16.42,5.643,31.872,14.163,44.943
	c12.352,18.975,31.921,32.926,55.286,37.564C495.99,191.53,503.927,192.436,512,192.436z"/>
<g>
	<path style="fill:#E25749;" d="M433.089,152.453H78.912c8.52-13.071,13.605-28.523,14.15-44.943h325.865
		C419.472,123.929,424.569,139.382,433.089,152.453z"/>
	<rect x="39.474" y="360.506" style="fill:#E25749;" width="433.042" height="17.626"/>
</g>
<path style="fill:#314A5F;" d="M258.23,326.472h-4.469c-22.273,0-40.329,18.056-40.329,40.329v120.847h85.128V366.801
	C298.56,344.528,280.503,326.472,258.23,326.472z"/>
<path style="fill:#E25749;" d="M307.372,487.648h-17.626V366.801c0-17.378-14.138-31.516-31.516-31.516h-4.469
	c-17.379,0-31.516,14.138-31.516,31.516v120.847h-17.626V366.801c0-27.098,22.045-49.142,49.142-49.142h4.469
	c27.098,0,49.142,22.045,49.142,49.142V487.648z"/>
<path style="fill:#FF6F52;" d="M417.158,119.266c19.485,0,45.789-22.776,45.789-22.776c-0.792,0-1.582-0.011-2.369-0.033
	c-38.076-1.046-70.4-28.322-79.035-65.422l-1.556-6.683H255.996H132.004l-1.556,6.683c-8.635,37.099-40.959,64.376-79.035,65.422
	c-0.788,0.021-1.578,0.033-2.369,0.033c0,0,26.305,22.776,45.789,22.776"/>
</svg>
